HIERARCHY
ROOT newVegas:Hips
{
	OFFSET 0.000000 96.479958 0.000000
	CHANNELS 6 Xposition Yposition Zposition Xrotation Yrotation Zrotation
	JOINT newVegas:Pelvis
	{
		OFFSET 0.000000 0.000000 0.000000
		CHANNELS 3 Xrotation Yrotation Zrotation
		JOINT newVegas:LeftUpLeg
		{
			OFFSET 18.735201 -5.666702 -4.541200
			CHANNELS 3 Xrotation Yrotation Zrotation
			JOINT newVegas:LeftLeg
			{
				OFFSET -0.021200 -31.938179 0.493100
				CHANNELS 3 Xrotation Yrotation Zrotation
				JOINT newVegas:LeftFoot
				{
					OFFSET 0.021200 -31.938179 -4.336299
					CHANNELS 3 Xrotation Yrotation Zrotation
					JOINT newVegas:LeftToeBase
					{
						OFFSET 0.943001 -26.722000 15.023500
						CHANNELS 3 Xrotation Yrotation Zrotation
						End Site
						{
							OFFSET 0.000000 30.670183 0.000000
						}
					}
				}
				JOINT newVegas:Left_PantLeg
				{
					OFFSET 0.663870 -9.044666 -1.108900
					CHANNELS 3 Xrotation Yrotation Zrotation
					End Site
					{
						OFFSET 1.415995 20.635357 0.000000
					}
				}
			}
		}
		JOINT newVegas:RightUpLeg
		{
			OFFSET -18.735201 -5.666702 -4.541200
			CHANNELS 3 Xrotation Yrotation Zrotation
			JOINT newVegas:RightLeg
			{
				OFFSET 0.018946 -31.938133 0.493100
				CHANNELS 3 Xrotation Yrotation Zrotation
				JOINT newVegas:RightFoot
				{
					OFFSET -0.018946 -31.938126 -4.336299
					CHANNELS 3 Xrotation Yrotation Zrotation
					JOINT newVegas:RightToeBase
					{
						OFFSET -0.943001 -26.722004 15.023500
						CHANNELS 3 Xrotation Yrotation Zrotation
						End Site
						{
							OFFSET 0.000000 30.670187 0.000000
						}
					}
				}
				JOINT newVegas:Right_PantLeg
				{
					OFFSET -0.661674 -9.044716 -1.108900
					CHANNELS 3 Xrotation Yrotation Zrotation
					End Site
					{
						OFFSET -1.415958 20.635269 0.000000
					}
				}
			}
		}
	}
	JOINT newVegas:Spine
	{
		OFFSET 0.000000 10.199997 -0.299500
		CHANNELS 3 Xrotation Yrotation Zrotation
		JOINT newVegas:Spine1
		{
			OFFSET 0.000000 11.900002 -1.516600
			CHANNELS 3 Xrotation Yrotation Zrotation
			JOINT newVegas:Spine2
			{
				OFFSET 0.000000 13.600006 -2.842500
				CHANNELS 3 Xrotation Yrotation Zrotation
				JOINT newVegas:Neck
				{
					OFFSET 0.000000 9.624100 -2.890100
					CHANNELS 3 Xrotation Yrotation Zrotation
					JOINT newVegas:Head
					{
						OFFSET 0.000000 14.068802 -1.351900
						CHANNELS 3 Xrotation Yrotation Zrotation
						JOINT newVegas:Hair_Back
						{
							OFFSET 0.000000 3.231903 -17.524799
							CHANNELS 3 Xrotation Yrotation Zrotation
							End Site
							{
								OFFSET 0.000000 19.849884 0.000000
							}
						}
						JOINT newVegas:Hair_Front
						{
							OFFSET 0.000000 31.260406 4.573800
							CHANNELS 3 Xrotation Yrotation Zrotation
							JOINT newVegas:Hair_Front1
							{
								OFFSET 0.000000 2.284103 11.993300
								CHANNELS 3 Xrotation Yrotation Zrotation
								JOINT newVegas:Hair_Front2
								{
									OFFSET 0.000000 2.284103 11.993300
									CHANNELS 3 Xrotation Yrotation Zrotation
									End Site
									{
										OFFSET 0.000000 12.208862 0.000000
									}
								}
							}
						}
						JOINT newVegas:Jowel
						{
							OFFSET 0.000000 -7.458206 6.864100
							CHANNELS 3 Xrotation Yrotation Zrotation
							End Site
							{
								OFFSET 0.000000 19.849884 0.000000
							}
						}
					}
				}
				JOINT newVegas:LeftShoulder
				{
					OFFSET 15.263000 10.923401 -0.547700
					CHANNELS 3 Xrotation Yrotation Zrotation
					JOINT newVegas:LeftArm
					{
						OFFSET 25.438599 -2.830597 -13.032500
						CHANNELS 3 Xrotation Yrotation Zrotation
						JOINT newVegas:LeftForeArm
						{
							OFFSET 29.960503 0.000000 0.000000
							CHANNELS 3 Xrotation Yrotation Zrotation
							JOINT newVegas:LeftHand
							{
								OFFSET 27.849251 0.000000 0.000000
								CHANNELS 3 Xrotation Yrotation Zrotation
								JOINT newVegas:LeftHandThumb1
								{
									OFFSET 4.487587 -3.305161 6.305391
									CHANNELS 3 Xrotation Yrotation Zrotation
									JOINT newVegas:LeftHandThumb2
									{
										OFFSET 5.480453 -3.164139 3.164143
										CHANNELS 3 Xrotation Yrotation Zrotation
										JOINT newVegas:LeftHandThumb3
										{
											OFFSET 5.159721 -2.978973 2.978967
											CHANNELS 3 Xrotation Yrotation Zrotation
											End Site
											{
												OFFSET 2.494507 5.926697 1.738678
											}
										}
									}
								}
								JOINT newVegas:LeftHandIndex1
								{
									OFFSET 18.578728 -0.527832 5.208049
									CHANNELS 3 Xrotation Yrotation Zrotation
									JOINT newVegas:LeftHandIndex2
									{
										OFFSET 3.192009 0.000000 0.000000
										CHANNELS 3 Xrotation Yrotation Zrotation
										JOINT newVegas:LeftHandIndex3
										{
											OFFSET 3.835129 0.000000 0.000000
											CHANNELS 3 Xrotation Yrotation Zrotation
											End Site
											{
												OFFSET -0.034599 3.816971 0.371180
											}
										}
									}
								}
								JOINT newVegas:LeftHandMiddle1
								{
									OFFSET 18.476105 0.000000 0.000000
									CHANNELS 3 Xrotation Yrotation Zrotation
									JOINT newVegas:LeftHandMiddle2
									{
										OFFSET 3.324875 0.000000 0.000000
										CHANNELS 3 Xrotation Yrotation Zrotation
										JOINT newVegas:LeftHandMiddle3
										{
											OFFSET 4.596550 0.000000 0.000000
											CHANNELS 3 Xrotation Yrotation Zrotation
											End Site
											{
												OFFSET 0.057701 4.578827 0.399218
											}
										}
									}
								}
								JOINT newVegas:LeftHandRing1
								{
									OFFSET 17.732719 0.121887 -4.201567
									CHANNELS 3 Xrotation Yrotation Zrotation
									JOINT newVegas:LeftHandRing2
									{
										OFFSET 2.733170 0.000000 0.000000
										CHANNELS 3 Xrotation Yrotation Zrotation
										JOINT newVegas:LeftHandRing3
										{
											OFFSET 3.178268 0.000000 0.000000
											CHANNELS 3 Xrotation Yrotation Zrotation
											End Site
											{
												OFFSET 0.119102 3.170624 0.185394
											}
										}
									}
								}
								JOINT newVegas:LeftHandPinky1
								{
									OFFSET 15.989624 -0.606689 -7.535461
									CHANNELS 3 Xrotation Yrotation Zrotation
									JOINT newVegas:LeftHandPinky2
									{
										OFFSET 2.538986 0.000000 0.000000
										CHANNELS 3 Xrotation Yrotation Zrotation
										JOINT newVegas:LeftHandPinky3
										{
											OFFSET 2.593102 0.000000 0.000000
											CHANNELS 3 Xrotation Yrotation Zrotation
											End Site
											{
												OFFSET -0.150902 2.584198 0.152708
											}
										}
									}
								}
							}
							JOINT newVegas:Left_Sleeve
							{
								OFFSET 0.267448 -0.649796 0.577675
								CHANNELS 3 Xrotation Yrotation Zrotation
								End Site
								{
									OFFSET 0.000000 15.991241 0.000000
								}
							}
							JOINT newVegas:Left_CapeC
							{
								OFFSET 15.715958 -8.608795 -6.935905
								CHANNELS 3 Xrotation Yrotation Zrotation
								JOINT newVegas:Left_CapeC1
								{
									OFFSET 0.000000 -8.688499 0.000000
									CHANNELS 3 Xrotation Yrotation Zrotation
									End Site
									{
										OFFSET 0.000000 8.688499 0.000000
									}
								}
							}
						}
						JOINT newVegas:Left_CapeB
						{
							OFFSET 26.118385 -8.608795 -7.079235
							CHANNELS 3 Xrotation Yrotation Zrotation
							JOINT newVegas:Left_CapeB1
							{
								OFFSET 0.000000 -8.688499 0.000000
								CHANNELS 3 Xrotation Yrotation Zrotation
								End Site
								{
									OFFSET 0.000000 8.688499 0.000000
								}
							}
						}
						JOINT newVegas:Left_CapeA
						{
							OFFSET 5.115639 -8.608795 -10.395809
							CHANNELS 3 Xrotation Yrotation Zrotation
							JOINT newVegas:Left_CapeA1
							{
								OFFSET 0.000000 -8.688499 0.000000
								CHANNELS 3 Xrotation Yrotation Zrotation
								End Site
								{
									OFFSET 0.000000 8.688499 0.000000
								}
							}
						}
					}
				}
				JOINT newVegas:RightShoulder
				{
					OFFSET -15.263000 10.923401 -0.547700
					CHANNELS 3 Xrotation Yrotation Zrotation
					JOINT newVegas:RightArm
					{
						OFFSET -25.438599 -2.830597 -13.032500
						CHANNELS 3 Xrotation Yrotation Zrotation
						JOINT newVegas:RightForeArm
						{
							OFFSET -29.960503 0.000000 0.000000
							CHANNELS 3 Xrotation Yrotation Zrotation
							JOINT newVegas:RightHand
							{
								OFFSET -27.849251 0.000000 0.000000
								CHANNELS 3 Xrotation Yrotation Zrotation
								JOINT newVegas:RightHandThumb1
								{
									OFFSET -4.487587 -3.305161 6.305391
									CHANNELS 3 Xrotation Yrotation Zrotation
									JOINT newVegas:RightHandThumb2
									{
										OFFSET -5.480453 -3.164139 3.164143
										CHANNELS 3 Xrotation Yrotation Zrotation
										JOINT newVegas:RightHandThumb3
										{
											OFFSET -5.159721 -2.978973 2.978967
											CHANNELS 3 Xrotation Yrotation Zrotation
											End Site
											{
												OFFSET -2.494507 5.926697 1.738678
											}
										}
									}
								}
								JOINT newVegas:RightHandIndex1
								{
									OFFSET -18.578728 -0.527832 5.208049
									CHANNELS 3 Xrotation Yrotation Zrotation
									JOINT newVegas:RightHandIndex2
									{
										OFFSET -3.192009 0.000000 0.000000
										CHANNELS 3 Xrotation Yrotation Zrotation
										JOINT newVegas:RightHandIndex3
										{
											OFFSET -3.835129 0.000000 0.000000
											CHANNELS 3 Xrotation Yrotation Zrotation
											End Site
											{
												OFFSET 0.034599 3.816971 0.371180
											}
										}
									}
								}
								JOINT newVegas:RightHandMiddle1
								{
									OFFSET -18.476105 0.000000 0.000000
									CHANNELS 3 Xrotation Yrotation Zrotation
									JOINT newVegas:RightHandMiddle2
									{
										OFFSET -3.324875 0.000000 0.000000
										CHANNELS 3 Xrotation Yrotation Zrotation
										JOINT newVegas:RightHandMiddle3
										{
											OFFSET -4.596550 0.000000 0.000000
											CHANNELS 3 Xrotation Yrotation Zrotation
											End Site
											{
												OFFSET -0.057701 4.578827 0.399218
											}
										}
									}
								}
								JOINT newVegas:RightHandRing1
								{
									OFFSET -17.732719 0.121887 -4.201567
									CHANNELS 3 Xrotation Yrotation Zrotation
									JOINT newVegas:RightHandRing2
									{
										OFFSET -2.733170 0.000000 0.000000
										CHANNELS 3 Xrotation Yrotation Zrotation
										JOINT newVegas:RightHandRing3
										{
											OFFSET -3.178268 0.000000 0.000000
											CHANNELS 3 Xrotation Yrotation Zrotation
											End Site
											{
												OFFSET -0.119102 3.170624 0.185394
											}
										}
									}
								}
								JOINT newVegas:RightHandPinky1
								{
									OFFSET -15.989624 -0.606689 -7.535461
									CHANNELS 3 Xrotation Yrotation Zrotation
									JOINT newVegas:RightHandPinky2
									{
										OFFSET -2.538986 0.000000 0.000000
										CHANNELS 3 Xrotation Yrotation Zrotation
										JOINT newVegas:RightHandPinky3
										{
											OFFSET -2.593102 0.000000 0.000000
											CHANNELS 3 Xrotation Yrotation Zrotation
											End Site
											{
												OFFSET 0.150902 2.584198 0.152708
											}
										}
									}
								}
							}
							JOINT newVegas:Right_CapeC
							{
								OFFSET -15.715958 -8.608795 -6.935905
								CHANNELS 3 Xrotation Yrotation Zrotation
								JOINT newVegas:Right_CapeC1
								{
									OFFSET 0.000000 -8.688499 0.000000
									CHANNELS 3 Xrotation Yrotation Zrotation
									End Site
									{
										OFFSET 0.000000 8.688499 0.000000
									}
								}
							}
							JOINT newVegas:Right_Sleeve
							{
								OFFSET -0.267448 -0.649994 0.577675
								CHANNELS 3 Xrotation Yrotation Zrotation
								End Site
								{
									OFFSET 0.000000 15.991302 0.000000
								}
							}
						}
						JOINT newVegas:Right_CapeA
						{
							OFFSET -5.115540 -8.608795 -10.395824
							CHANNELS 3 Xrotation Yrotation Zrotation
							JOINT newVegas:Right_CapeA1
							{
								OFFSET 0.000000 -8.688499 0.000000
								CHANNELS 3 Xrotation Yrotation Zrotation
								End Site
								{
									OFFSET 0.000000 8.688499 0.000000
								}
							}
						}
						JOINT newVegas:Right_CapeB
						{
							OFFSET -26.118187 -8.608795 -7.079266
							CHANNELS 3 Xrotation Yrotation Zrotation
							JOINT newVegas:Right_CapeB1
							{
								OFFSET 0.000000 -8.688499 0.000000
								CHANNELS 3 Xrotation Yrotation Zrotation
								End Site
								{
									OFFSET 0.000000 8.688499 0.000000
								}
							}
						}
					}
				}
				JOINT newVegas:Left_Collar
				{
					OFFSET 18.625099 8.655502 8.828100
					CHANNELS 3 Xrotation Yrotation Zrotation
					JOINT newVegas:Left_Collar1
					{
						OFFSET 14.783401 10.540405 -1.259500
						CHANNELS 3 Xrotation Yrotation Zrotation
						End Site
						{
							OFFSET 0.000000 18.199875 0.000000
						}
					}
				}
				JOINT newVegas:Collar_Back
				{
					OFFSET 0.000000 15.630707 -20.132601
					CHANNELS 3 Xrotation Yrotation Zrotation
					End Site
					{
						OFFSET 0.000000 22.523010 0.000000
					}
				}
				JOINT newVegas:Left_Peck
				{
					OFFSET 17.239599 -5.132599 25.482599
					CHANNELS 3 Xrotation Yrotation Zrotation
					End Site
					{
						OFFSET 0.000000 22.523010 0.000000
					}
				}
				JOINT newVegas:Right_Peck
				{
					OFFSET -17.239599 -5.132202 25.482599
					CHANNELS 3 Xrotation Yrotation Zrotation
					End Site
					{
						OFFSET 0.000000 22.523010 0.000000
					}
				}
				JOINT newVegas:Right_Collar
				{
					OFFSET -18.625099 8.655792 8.828100
					CHANNELS 3 Xrotation Yrotation Zrotation
					JOINT newVegas:Right_Collar1
					{
						OFFSET -14.783401 10.539993 -1.259500
						CHANNELS 3 Xrotation Yrotation Zrotation
						End Site
						{
							OFFSET 0.000000 18.199631 0.000000
						}
					}
				}
			}
		}
		JOINT newVegas:Belly
		{
			OFFSET 0.000000 -6.540398 9.014299
			CHANNELS 3 Xrotation Yrotation Zrotation
			End Site
			{
				OFFSET 0.000000 11.566666 0.000000
			}
		}
	}
	JOINT newVegas:ElvisFacialAnim_Joint
	{
		OFFSET 1.000000 -95.330101 -8.825800
		CHANNELS 3 Xrotation Yrotation Zrotation
		End Site
		{
			OFFSET 0.000000 35.315800 0.000000
		}
	}
}
MOTION
Frames: 4
Frame Time: 0.016667
-0.830116 92.320038 4.501393 2.379759 -11.966284 -0.461151 -0.000000 -0.000000 0.000000 -21.234703 10.714849 16.608057 27.570998 4.095062 2.022433 -6.451900 6.377033 -14.049294 0.000000 -0.000000 -0.000000 0.000001 -0.000000 -0.000001 -13.011188 -7.720712 -9.182909 25.721176 -4.544716 -1.828095 -13.956429 -1.516228 11.457510 0.000000 -0.000000 0.000000 -0.000000 0.000001 0.000000 9.425506 1.976224 0.384031 2.870546 4.029878 0.917349 -9.001475 3.754922 1.727677 -0.796446 0.375830 -1.407370 -0.796442 0.375831 -1.407370 0.000000 0.000000 -0.000000 -0.796377 0.375832 -1.407371 -0.796453 0.375831 -1.407369 -0.000000 -0.000000 0.000000 0.000000 0.000000 -0.000000 -1.295774 0.077918 -4.827720 -3.652861 -0.069588 -73.007025 -0.000051 -15.717669 -0.000390 2.306651 0.164982 -5.013148 8.265300 -7.734429 18.880825 5.407280 20.572726 -9.835070 -0.000000 -0.000000 -0.000003 0.273661 -4.246506 -3.910712 0.097441 -0.794742 -17.447640 0.000001 -0.000002 -0.000000 0.248923 -1.909206 -12.464977 -0.126916 -0.878909 -17.469109 0.000000 0.000001 0.000000 0.311236 -1.760785 -17.977504 -0.194370 -1.090512 -20.983234 -0.000000 0.000003 -0.000002 0.622131 -0.700679 -24.132877 -0.024668 -0.945245 -17.465299 0.000002 0.000000 0.000000 -0.000000 0.000002 -0.000001 -0.000000 0.000002 -0.000001 -0.000000 0.000002 -0.000001 0.000000 0.000000 0.000000 -0.000000 0.000001 0.000000 0.000000 0.000000 0.000000 0.000000 0.000001 0.000000 -1.295768 -0.077837 4.827749 3.909177 3.069875 67.997730 -0.000010 18.089259 0.000047 2.313893 -1.592968 -2.170073 8.265281 7.734439 -18.880815 5.407331 -20.572680 9.835186 0.000000 0.000001 0.000001 0.272414 4.252686 3.917169 0.097384 0.794946 17.452779 0.000001 -0.000000 0.000000 0.250213 1.903646 12.463713 -0.126986 0.878944 17.470150 0.000000 -0.000001 -0.000001 0.310435 1.762620 17.988980 -0.194385 1.090566 20.984689 0.000002 0.000001 -0.000001 0.626365 0.701956 24.132105 -0.024621 0.945190 17.464138 0.000000 -0.000002 -0.000001 -0.000000 0.000001 -0.000000 -0.000000 0.000001 -0.000000 -0.000000 0.000001 -0.000000 0.000000 0.000000 0.000000 0.000000 0.000000 0.000000 0.000000 0.000000 0.000000 0.000000 -0.000000 0.000000 0.000000 -0.000000 -0.000000 0.000000 -0.000000 -0.000000 0.000000 -0.000000 -0.000000 0.000000 -0.000000 -0.000000 0.000000 -0.000000 -0.000000 0.000000 -0.000000 -0.000000 0.000000 -0.000000 -0.000000 0.000001 0.000000 -0.000000 -0.000000 -0.000000 0.000000 
-0.790959 92.302704 4.515499 2.552448 -12.047411 -0.471120 -0.000000 0.000001 -0.000000 -21.442742 10.666656 16.622949 27.725375 4.156101 2.031922 -6.551433 6.432365 -14.047943 -0.000000 0.000000 -0.000000 -0.000001 -0.000001 -0.000000 -13.180549 -7.710472 -9.171562 25.636021 -4.505716 -1.822256 -13.871562 -1.481698 11.474672 -0.000000 0.000000 0.000000 0.000002 0.000000 -0.000001 9.400891 1.893162 0.402157 2.806026 4.034561 0.910478 -9.063600 3.756301 1.734032 -0.850255 0.295864 -1.560322 -0.850258 0.295865 -1.560322 0.000000 0.000000 0.000000 -0.850255 0.295865 -1.560321 -0.850184 0.295867 -1.560324 -0.000000 0.000000 0.000000 0.000000 0.000000 0.000000 -1.298115 0.155753 -4.850347 -3.189656 0.061112 -72.936749 -0.000015 -16.015503 -0.000184 3.331689 -0.184954 -5.638284 8.273797 -7.737130 18.864330 5.390303 20.552439 -9.830155 0.000001 -0.000001 -0.000001 0.270696 -4.248339 -3.950695 0.097112 -0.795833 -17.472104 -0.000001 0.000000 -0.000000 0.246386 -1.912602 -12.540571 -0.127543 -0.880744 -17.507098 0.000000 0.000002 -0.000001 0.308627 -1.764645 -18.061532 -0.195017 -1.092084 -21.014966 0.000001 -0.000001 0.000001 0.621592 -0.702829 -24.174748 -0.025599 -0.948286 -17.523231 0.000002 0.000000 -0.000003 0.000000 -0.000001 0.000001 0.000000 -0.000001 0.000001 0.000000 -0.000001 0.000000 0.000000 0.000001 -0.000001 -0.000000 0.000000 -0.000001 0.000000 0.000001 -0.000001 0.000000 0.000000 -0.000002 -1.275742 -0.132166 4.800657 4.101212 3.268592 67.974480 0.000926 18.208668 -0.000168 2.345988 -1.166090 -2.036996 8.265285 7.734439 -18.880817 5.407326 -20.572680 9.835187 0.000001 -0.000000 -0.000000 0.272072 4.256427 3.991450 0.096757 0.796871 17.496458 0.000001 -0.000000 -0.000000 0.248831 1.912047 12.629769 -0.128506 0.883672 17.567528 0.000000 0.000000 -0.000001 0.304023 1.771984 18.193782 -0.195450 1.093401 21.041576 -0.000001 0.000001 -0.000000 0.625178 0.706762 24.225498 -0.026344 0.950797 17.571476 -0.000002 0.000002 0.000000 -0.000000 0.000001 -0.000001 0.000000 0.000000 -0.000001 -0.000000 0.000001 -0.000001 -0.000000 0.000000 -0.000000 -0.000000 0.000000 -0.000000 -0.000000 0.000000 -0.000000 -0.000000 -0.000000 -0.000000 0.000000 0.000000 -0.000000 0.000000 0.000000 -0.000000 0.000000 0.000000 -0.000000 0.000000 0.000000 -0.000000 0.000000 0.000000 -0.000000 0.000000 0.000000 -0.000000 0.000000 0.000000 -0.000000 0.000000 0.000000 0.000000 -0.000000 0.000001 -0.000000 
-0.665420 92.278824 4.528375 2.726821 -12.099834 -0.480163 -0.000000 0.000001 -0.000000 -21.736725 10.618824 16.572696 28.013608 4.209070 2.045013 -6.725812 6.477598 -13.969707 0.000000 0.000000 -0.000000 -0.000001 0.000000 -0.000002 -13.355105 -7.684054 -9.233068 25.527173 -4.477390 -1.815721 -13.745287 -1.463773 11.564430 -0.000000 -0.000000 -0.000000 0.000001 -0.000001 0.000000 9.397766 1.791524 0.441536 2.763054 4.049153 0.909946 -9.100128 3.757394 1.768804 -0.898713 0.228103 -1.742677 -0.898707 0.228103 -1.742677 0.000001 0.000000 -0.000000 -0.898715 0.228102 -1.742676 -0.898717 0.228103 -1.742677 -0.000000 -0.000000 0.000000 0.000001 0.000000 -0.000000 -1.303886 0.333882 -4.902909 -3.050627 0.056952 -72.883330 -0.000016 -15.382366 -0.000256 4.405434 -1.213637 -6.241229 8.292459 -7.742940 18.828400 5.350595 20.509289 -9.813133 0.000000 -0.000000 -0.000003 0.264213 -4.252226 -4.038109 0.096377 -0.798201 -17.525707 0.000000 0.000001 0.000000 0.240797 -1.919970 -12.705962 -0.128830 -0.884778 -17.590374 -0.000001 0.000001 0.000001 0.302888 -1.773015 -18.245319 -0.196342 -1.095556 -21.084495 0.000000 -0.000002 -0.000006 0.620438 -0.707520 -24.266334 -0.027731 -0.954882 -17.650037 -0.000001 0.000002 -0.000001 0.000001 -0.000000 0.000001 0.000001 -0.000000 0.000001 0.000001 -0.000000 0.000001 0.000000 -0.000001 -0.000001 -0.000000 -0.000001 -0.000001 0.000000 -0.000001 -0.000001 0.000000 -0.000001 -0.000001 -1.219722 -0.284617 4.724592 4.623790 3.807455 67.911806 0.003489 18.543422 -0.000424 2.401646 -0.735411 -1.898781 8.265278 7.734434 -18.880813 5.407328 -20.572677 9.835177 0.000001 -0.000000 -0.000001 0.271348 4.264609 4.154763 0.095374 0.801146 17.592648 -0.000001 0.000000 -0.000001 0.245837 1.930342 12.992153 -0.131772 0.893975 17.778841 -0.000001 0.000000 -0.000001 0.296099 1.794274 18.638691 -0.197849 1.099620 21.166821 -0.000001 0.000002 0.000003 0.622696 0.717215 24.429159 -0.030329 0.963093 17.807162 -0.000001 -0.000000 -0.000001 -0.000000 -0.000002 0.000000 0.000000 -0.000001 0.000000 -0.000000 -0.000002 0.000001 -0.000000 0.000002 0.000001 -0.000000 0.000002 0.000001 -0.000000 0.000002 0.000001 -0.000000 0.000002 0.000001 -0.000000 -0.000000 -0.000001 -0.000000 -0.000000 -0.000001 -0.000000 -0.000000 -0.000001 -0.000000 -0.000000 -0.000001 -0.000000 -0.000000 -0.000001 -0.000000 -0.000000 -0.000001 -0.000000 -0.000000 -0.000001 0.000000 -0.000000 -0.000000 -0.000000 0.000001 -0.000000 
-0.463217 92.249008 4.540473 2.902143 -12.135824 -0.488304 -0.000000 -0.000000 -0.000000 -22.099762 10.574266 16.464982 28.416039 4.259535 2.060271 -6.967071 6.517138 -13.824589 0.000000 0.000000 -0.000000 -0.000000 0.000000 -0.000001 -13.536816 -7.642206 -9.361545 25.395820 -4.452992 -1.807085 -13.579082 -1.456603 11.717508 0.000000 0.000000 -0.000000 -0.000002 0.000002 -0.000002 9.416618 1.677018 0.495461 2.745823 4.068236 0.905525 -9.107703 3.755930 1.814802 -0.973577 0.163780 -1.893207 -0.973577 0.163781 -1.893205 0.000000 0.000000 0.000000 -0.973512 0.163778 -1.893207 -0.973587 0.163782 -1.893204 0.000000 -0.000000 0.000000 0.000000 0.000000 0.000000 -1.311608 0.529196 -4.962479 -2.922619 0.021941 -72.895713 0.000045 -14.822127 -0.000233 5.163004 -2.007067 -6.577190 8.316509 -7.750524 18.781900 5.299040 20.453579 -9.790631 -0.000003 -0.000002 -0.000003 0.255903 -4.257259 -4.150998 0.095369 -0.801282 -17.594987 0.000002 0.000001 -0.000000 0.237186 -1.930310 -12.919524 -0.130453 -0.890008 -17.697802 -0.000000 0.000001 0.000001 0.295435 -1.783801 -18.482712 -0.198022 -1.100021 -21.174398 0.000000 0.000001 -0.000001 0.618887 -0.713569 -24.384662 -0.030469 -0.963444 -17.813827 -0.000000 -0.000002 0.000002 0.000000 -0.000001 -0.000000 0.000000 -0.000001 -0.000000 -0.000000 -0.000001 -0.000000 -0.000000 0.000000 -0.000002 -0.000000 0.000000 -0.000002 -0.000000 0.000000 -0.000002 -0.000000 0.000000 -0.000002 -1.134008 -0.519547 4.607378 5.397550 4.600121 67.820398 0.007692 19.058806 -0.000930 2.479781 -0.301324 -1.755891 8.265279 7.734435 -18.880811 5.407331 -20.572683 9.835174 0.000001 -0.000001 0.000001 0.270312 4.275206 4.365243 0.093650 0.806662 17.716768 -0.000002 0.000001 -0.000000 0.241737 1.953905 13.457418 -0.135988 0.907073 18.049152 0.000001 0.000001 -0.000001 0.286099 1.822939 19.208662 -0.200975 1.107619 21.328430 0.000000 0.000001 0.000000 0.619391 0.730655 24.690598 -0.035455 0.978948 18.111201 -0.000000 0.000001 0.000002 0.000000 -0.000000 -0.000001 -0.000000 -0.000001 -0.000000 0.000000 -0.000001 -0.000002 0.000000 -0.000001 -0.000001 0.000000 0.000000 -0.000001 0.000000 -0.000001 -0.000001 0.000000 -0.000000 -0.000001 0.000000 -0.000000 -0.000000 0.000000 -0.000000 -0.000000 0.000000 -0.000000 -0.000000 0.000000 -0.000000 -0.000000 0.000000 -0.000000 -0.000000 0.000000 -0.000000 -0.000000 0.000000 -0.000000 -0.000000 0.000000 0.000000 -0.000000 -0.000000 -0.000000 -0.000000 
